<svg xmlns="http://www.w3.org/2000/svg"><defs><symbol id="icon-cafe" viewBox="0 0 102 32"><path fill="currentColor" d="M15.36 29.12c-2.56 0-5.12-.32-7.04-1.6s-3.2-2.88-4.48-4.8c-.829-1.87-1.312-4.052-1.312-6.346 0-.357.012-.711.035-1.062l-.002.048c0-2.88.32-5.12 1.28-7.36C5.847 4.146 9.81 1.559 14.378 1.559c.346 0 .688.015 1.027.044l-.044-.003c3.2 0 5.76.64 7.68 2.24s3.2 3.52 3.84 6.4h-4.48a6.413 6.413 0 0 0-2.229-3.831l-.011-.009c-1.28-.96-2.88-1.28-4.8-1.28-2.88 0-4.8.96-6.4 2.88-1.6 1.6-2.24 4.16-2.24 7.36s.64 5.76 2.24 7.68c1.6 1.6 3.52 2.56 6.4 2.56 1.92 0 3.52-.32 4.8-1.28.96-.96 1.92-1.92 2.24-3.52h4.48c-.64 2.56-1.92 4.8-3.84 6.4-1.92 1.28-4.48 1.92-7.68 1.92zm15.36-.32 9.6-26.88h4.8L54.4 28.8h-4.16L48 22.4H36.8l-1.6 6.4h-4.48zm7.68-9.6h8.64L42.88 6.4 38.4 19.2zm21.76 9.6V1.92h16.96v3.2h-12.8v8.64h10.56v3.2H64V28.8h-4.16zm22.4 0V1.92H99.2v3.2H86.4v8.32h11.84v3.2H86.4v8.96h12.8v3.2H82.24z"/></symbol><symbol id="icon-foodtruck" viewBox="0 0 240 32"><path fill="currentColor" d="M0 28.8V1.92h16.96v3.2H4.16v8.64h10.56v3.2H4.16V28.8H0zm35.2.32c-3.2 0-5.44-.32-7.36-1.6s-3.2-2.88-4.48-4.8c-1.28-2.24-1.92-4.48-1.92-7.36s.64-5.12 1.92-7.36c.96-1.6 2.24-3.52 4.48-4.8 1.92-1.28 4.48-1.6 7.36-1.6 2.56 0 5.12.32 7.04 1.6s3.52 2.88 4.48 4.8c1.28 2.24 1.92 4.48 1.92 7.36s-.64 5.12-1.92 7.36c-.96 1.92-2.56 3.52-4.48 4.8s-4.48 1.6-7.04 1.6zm0-3.52c1.6 0 3.2-.32 4.48-1.28 1.28-.64 2.56-1.92 3.2-3.2.96-1.92 1.28-3.52 1.28-5.76s-.32-3.84-1.28-5.44c-.64-1.6-1.92-2.88-3.2-3.52-1.28-.96-3.2-1.28-4.8-1.28h-.011a9.55 9.55 0 0 0-4.835 1.305l.046-.025c-1.28.64-2.56 1.92-3.2 3.2-.813 1.635-1.289 3.561-1.289 5.598 0 .169.003.338.01.506l-.001-.024c0 2.24.64 3.84 1.28 5.44s1.92 2.88 3.2 3.52c1.28.96 3.2 1.28 4.8 1.28zm31.36 3.52c-2.56 0-4.8-.32-6.72-1.6-2.24-1.28-3.52-2.88-4.8-4.8-1.28-2.24-1.6-4.48-1.6-7.36s.32-5.12 1.6-7.36c1.28-1.92 2.56-3.52 4.8-4.8 1.92-1.28 4.16-1.6 6.72-1.6 2.88 0 5.12.32 7.04 1.6 2.24 1.28 3.52 2.88 4.8 4.8.96 2.24 1.6 4.48 1.6 7.36s-.64 5.12-1.6 7.36c-1.28 1.92-2.56 3.52-4.8 4.8-1.92 1.28-4.16 1.6-7.04 1.6zm0-3.52c1.92 0 3.52-.32 4.8-1.28 1.6-.64 2.56-1.92 3.2-3.2.96-1.92 1.28-3.52 1.28-5.76s-.32-3.84-.96-5.44c-.96-1.6-1.92-2.88-3.2-3.52-1.6-.96-3.2-1.28-5.12-1.28h-.011a9.55 9.55 0 0 0-4.835 1.305l.045-.025c-1.28.64-2.24 1.92-3.2 3.2-.624 1.456-.987 3.15-.987 4.929 0 .292.01.583.029.87l-.002-.039c0 2.24 0 3.84.96 5.44s1.92 2.88 3.2 3.52c1.6.96 3.2 1.28 4.8 1.28zm19.84 3.2V1.92h8.64c3.2 0 5.76.64 8 1.6 1.92 1.28 3.2 2.56 4.48 4.8.96 1.92 1.28 4.16 1.28 7.04a15.948 15.948 0 0 1-1.32 7.143l.04-.103c-.96 2.24-2.56 3.84-4.48 4.8-2.24.96-4.8 1.6-8 1.6H86.4zm4.16-3.2h4.48c2.24 0 4.16-.64 5.76-1.6 1.28-.64 2.56-1.92 3.2-3.2l.64-5.44c0-1.92 0-3.84-.96-5.44-.32-1.28-1.6-2.56-3.2-3.2-1.28-.96-3.2-1.28-5.44-1.28h-4.48v19.84zM120 28.8V5.12h-8v-3.2h20.16v3.2h-8V28.8H120zm17.28 0V1.92h9.6c1.92 0 3.52.32 5.12.96l3.2 3.2.64 3.84c0 1.6-.32 3.2-1.28 4.48s-2.24 2.56-4.16 3.2l5.44 11.2h-4.8l-5.12-10.88h-4.8V28.8h-4.16zm4.16-13.76h5.12c1.6 0 3.2-.64 3.84-1.6.96-.64 1.28-1.92 1.28-3.2 0-1.6-.32-2.88-1.28-3.52-.64-.96-2.24-1.28-4.16-1.28h-4.8v9.6zm30.72 13.76c-1.92 0-3.84 0-5.44-.96-1.6-.64-2.56-1.92-3.52-3.52s-1.28-3.52-1.28-6.08V1.92h3.84v16.96c0 2.24.64 3.84 1.92 5.12.96.96 2.56 1.6 4.48 1.6s3.2-.64 4.48-1.6c.96-1.28 1.6-3.2 1.6-5.12V1.92h4.16v16.64c0 2.56-.64 4.48-1.28 6.08-.96 1.6-2.24 2.88-3.84 3.52s-3.2.96-5.12.96zm28.8 0c-2.56 0-4.8-.32-6.72-1.6s-3.2-2.88-4.48-4.8c-1.012-2.04-1.604-4.443-1.604-6.983 0-.132.002-.264.005-.396v.02c0-2.88.64-5.12 1.6-7.36 2.006-3.854 5.969-6.441 10.537-6.441.346 0 .688.015 1.027.044l-.044-.003c3.2 0 5.44.64 7.68 2.24 1.92 1.6 3.2 3.52 3.84 6.4h-4.8a6.413 6.413 0 0 0-2.229-3.831l-.011-.009c-1.28-.96-2.56-1.28-4.8-1.28-2.56 0-4.8.96-6.4 2.88-1.28 1.6-2.24 4.16-2.24 7.36s.96 5.76 2.24 7.68c1.6 1.6 3.84 2.56 6.4 2.56 2.24 0 3.52-.32 4.8-1.28s1.92-1.92 2.24-3.52h4.8c-.64 2.56-1.92 4.8-3.84 6.4-2.24 1.28-4.8 1.92-7.68 1.92zm17.6-.32V1.92h4.16v11.52l10.56-11.52h5.12l-9.92 10.56 10.24 16.32h-5.12l-8-12.8-2.88 2.88v9.92h-4.16z"/></symbol><symbol id="icon-Vector-1" viewBox="0 0 19 32"><path fill="currentColor" stroke-linejoin="round" stroke-linecap="round" stroke-width="6.4" d="M3.2 3.2 14.72 16 3.2 28.8"/></symbol><symbol id="icon-line" viewBox="0 0 3456 32"><path fill="#e1e1e1" style="fill:var(--color1,#e1e1e1)" d="M0 8v16h3456V8z"/></symbol></defs></svg>