<svg aria-hidden="true" style="width:0;height:0;position:absolute;overflow:hidden" xmlns="http://www.w3.org/2000/svg"><defs><symbol id="icon-dots-dots" viewBox="0 0 139 32"><path fill="#fff" style="fill:var(--color1,#fff)" d="M85.333 16c0 8.837-7.163 16-16 16s-16-7.163-16-16 7.163-16 16-16 16 7.163 16 16zM32 16c0 8.837-7.163 16-16 16S0 24.837 0 16 7.163 0 16 0s16 7.163 16 16zM138.667 16c0 8.837-7.163 16-16 16s-16-7.163-16-16 7.163-16 16-16 16 7.163 16 16z"/></symbol><symbol id="icon-arrow-right" viewBox="0 0 32 32"><path d="M0 0h32v32H0V0z"/></symbol><symbol id="icon-arrow" viewBox="0 0 22 32"><path fill="none" stroke="#d41443" style="stroke:var(--color1,#d41443)" stroke-linejoin="round" stroke-linecap="round" stroke-width="6.4" d="M3.321 3.2 18.295 16 3.321 28.8"/></symbol><symbol id="icon-arrow-small" viewBox="0 0 32 32"><path d="m23.219 14.115-5.724-5.724-1.885 1.885 4.391 4.391H6.668v2.667h13.333l-4.391 4.391 1.885 1.885 5.724-5.724c.482-.483.781-1.149.781-1.885s-.298-1.403-.781-1.885z"/></symbol></defs></svg>