<svg xmlns="http://www.w3.org/2000/svg" xmlns:xlink="http://www.w3.org/1999/xlink">
<defs>
<symbol id="icon-cafe" viewBox="0 0 102 32">
<path fill="currentColor" d="M15.36 29.12c-2.56 0-5.12-0.32-7.040-1.6s-3.2-2.88-4.48-4.8c-0.829-1.87-1.312-4.052-1.312-6.346 0-0.357 0.012-0.711 0.035-1.062l-0.002 0.048c0-2.88 0.32-5.12 1.28-7.36 2.006-3.854 5.969-6.441 10.537-6.441 0.346 0 0.688 0.015 1.027 0.044l-0.044-0.003c3.2 0 5.76 0.64 7.68 2.24s3.2 3.52 3.84 6.4h-4.48c-0.279-1.556-1.088-2.888-2.229-3.831l-0.011-0.009c-1.28-0.96-2.88-1.28-4.8-1.28-2.88 0-4.8 0.96-6.4 2.88-1.6 1.6-2.24 4.16-2.24 7.36s0.64 5.76 2.24 7.68c1.6 1.6 3.52 2.56 6.4 2.56 1.92 0 3.52-0.32 4.8-1.28 0.96-0.96 1.92-1.92 2.24-3.52h4.48c-0.64 2.56-1.92 4.8-3.84 6.4-1.92 1.28-4.48 1.92-7.68 1.92zM30.72 28.8l9.6-26.88h4.8l9.28 26.88h-4.16l-2.24-6.4h-11.2l-1.6 6.4h-4.48zM38.4 19.2h8.64l-4.16-12.8-4.48 12.8zM60.16 28.8v-26.88h16.96v3.2h-12.8v8.64h10.56v3.2h-10.88v11.84h-4.16zM82.56 28.8v-26.88h16.64v3.2h-12.8v8.32h11.84v3.2h-11.84v8.96h12.8v3.2h-16.96z"></path>
</symbol>
<symbol id="icon-foodtruck" viewBox="0 0 240 32">
<path fill="currentColor" d="M0 28.8v-26.88h16.96v3.2h-12.8v8.64h10.56v3.2h-10.56v11.84h-4.16zM35.2 29.12c-3.2 0-5.44-0.32-7.36-1.6s-3.2-2.88-4.48-4.8c-1.28-2.24-1.92-4.48-1.92-7.36s0.64-5.12 1.92-7.36c0.96-1.6 2.24-3.52 4.48-4.8 1.92-1.28 4.48-1.6 7.36-1.6 2.56 0 5.12 0.32 7.040 1.6s3.52 2.88 4.48 4.8c1.28 2.24 1.92 4.48 1.92 7.36s-0.64 5.12-1.92 7.36c-0.96 1.92-2.56 3.52-4.48 4.8s-4.48 1.6-7.040 1.6zM35.2 25.6c1.6 0 3.2-0.32 4.48-1.28 1.28-0.64 2.56-1.92 3.2-3.2 0.96-1.92 1.28-3.52 1.28-5.76s-0.32-3.84-1.28-5.44c-0.64-1.6-1.92-2.88-3.2-3.52-1.28-0.96-3.2-1.28-4.8-1.28-0.003 0-0.007 0-0.011 0-1.763 0-3.415 0.475-4.835 1.305l0.046-0.025c-1.28 0.64-2.56 1.92-3.2 3.2-0.813 1.635-1.289 3.561-1.289 5.598 0 0.169 0.003 0.338 0.010 0.506l-0.001-0.024c0 2.24 0.64 3.84 1.28 5.44s1.92 2.88 3.2 3.52c1.28 0.96 3.2 1.28 4.8 1.28zM66.56 29.12c-2.56 0-4.8-0.32-6.72-1.6-2.24-1.28-3.52-2.88-4.8-4.8-1.28-2.24-1.6-4.48-1.6-7.36s0.32-5.12 1.6-7.36c1.28-1.92 2.56-3.52 4.8-4.8 1.92-1.28 4.16-1.6 6.72-1.6 2.88 0 5.12 0.32 7.040 1.6 2.24 1.28 3.52 2.88 4.8 4.8 0.96 2.24 1.6 4.48 1.6 7.36s-0.64 5.12-1.6 7.36c-1.28 1.92-2.56 3.52-4.8 4.8-1.92 1.28-4.16 1.6-7.040 1.6zM66.56 25.6c1.92 0 3.52-0.32 4.8-1.28 1.6-0.64 2.56-1.92 3.2-3.2 0.96-1.92 1.28-3.52 1.28-5.76s-0.32-3.84-0.96-5.44c-0.96-1.6-1.92-2.88-3.2-3.52-1.6-0.96-3.2-1.28-5.12-1.28-0.003 0-0.007 0-0.011 0-1.763 0-3.415 0.475-4.835 1.305l0.045-0.025c-1.28 0.64-2.24 1.92-3.2 3.2-0.624 1.456-0.987 3.15-0.987 4.929 0 0.292 0.010 0.583 0.029 0.87l-0.002-0.039c0 2.24 0 3.84 0.96 5.44s1.92 2.88 3.2 3.52c1.6 0.96 3.2 1.28 4.8 1.28zM86.4 28.8v-26.88h8.64c3.2 0 5.76 0.64 8 1.6 1.92 1.28 3.2 2.56 4.48 4.8 0.96 1.92 1.28 4.16 1.28 7.040 0.011 0.218 0.017 0.473 0.017 0.73 0 2.28-0.477 4.449-1.337 6.413l0.040-0.103c-0.96 2.24-2.56 3.84-4.48 4.8-2.24 0.96-4.8 1.6-8 1.6h-8.64zM90.56 25.6h4.48c2.24 0 4.16-0.64 5.76-1.6 1.28-0.64 2.56-1.92 3.2-3.2l0.64-5.44c0-1.92 0-3.84-0.96-5.44-0.32-1.28-1.6-2.56-3.2-3.2-1.28-0.96-3.2-1.28-5.44-1.28h-4.48v19.84zM120 28.8v-23.68h-8v-3.2h20.16v3.2h-8v23.68h-4.16zM137.28 28.8v-26.88h9.6c1.92 0 3.52 0.32 5.12 0.96l3.2 3.2 0.64 3.84c0 1.6-0.32 3.2-1.28 4.48s-2.24 2.56-4.16 3.2l5.44 11.2h-4.8l-5.12-10.88h-4.8v10.88h-4.16zM141.44 15.040h5.12c1.6 0 3.2-0.64 3.84-1.6 0.96-0.64 1.28-1.92 1.28-3.2 0-1.6-0.32-2.88-1.28-3.52-0.64-0.96-2.24-1.28-4.16-1.28h-4.8v9.6zM172.16 28.8c-1.92 0-3.84 0-5.44-0.96-1.6-0.64-2.56-1.92-3.52-3.52s-1.28-3.52-1.28-6.080v-16.32h3.84v16.96c0 2.24 0.64 3.84 1.92 5.12 0.96 0.96 2.56 1.6 4.48 1.6s3.2-0.64 4.48-1.6c0.96-1.28 1.6-3.2 1.6-5.12v-16.96h4.16v16.64c0 2.56-0.64 4.48-1.28 6.080-0.96 1.6-2.24 2.88-3.84 3.52s-3.2 0.96-5.12 0.96zM200.96 28.8c-2.56 0-4.8-0.32-6.72-1.6s-3.2-2.88-4.48-4.8c-1.012-2.040-1.604-4.443-1.604-6.983 0-0.132 0.002-0.264 0.005-0.396l-0 0.020c0-2.88 0.64-5.12 1.6-7.36 2.006-3.854 5.969-6.441 10.537-6.441 0.346 0 0.688 0.015 1.027 0.044l-0.044-0.003c3.2 0 5.44 0.64 7.68 2.24 1.92 1.6 3.2 3.52 3.84 6.4h-4.8c-0.279-1.556-1.088-2.888-2.229-3.831l-0.011-0.009c-1.28-0.96-2.56-1.28-4.8-1.28-2.56 0-4.8 0.96-6.4 2.88-1.28 1.6-2.24 4.16-2.24 7.36s0.96 5.76 2.24 7.68c1.6 1.6 3.84 2.56 6.4 2.56 2.24 0 3.52-0.32 4.8-1.28s1.92-1.92 2.24-3.52h4.8c-0.64 2.56-1.92 4.8-3.84 6.4-2.24 1.28-4.8 1.92-7.68 1.92zM218.56 28.48v-26.56h4.16v11.52l10.56-11.52h5.12l-9.92 10.56 10.24 16.32h-5.12l-8-12.8-2.88 2.88v9.92h-4.16z"></path>
</symbol>
<symbol id="icon-Vector-1" viewBox="0 0 19 32">
<path fill="currentColor" stroke-linejoin="round" stroke-linecap="round" stroke-miterlimit="4" stroke-width="6.4" d="M3.2 3.2l11.52 12.8-11.52 12.8"></path>
</symbol>
<symbol id="icon-line" viewBox="0 0 3456 32">
<path fill="#e1e1e1" style="fill: var(--color1, #e1e1e1)" d="M0 8v16h3456v-16z"></path>
</symbol>
</defs>
</svg>
